<svg width="49" height="49" viewBox="0 0 49 49" fill="none" xmlns="http://www.w3.org/2000/svg">
<path d="M22.4585 2.97707L22.4586 2.97708L22.4591 2.97173C22.4804 2.73355 22.7126 2.53483 22.9542 2.5464L22.9542 2.54664L22.9627 2.54657C23.8059 2.53948 24.649 2.54148 25.4931 2.54347C25.674 2.5439 25.855 2.54432 26.0361 2.54466V2.54505L26.0469 2.54429C26.2978 2.52658 26.5404 2.7191 26.5688 2.96233L26.5688 2.96233L26.569 2.96419C26.6164 3.33063 26.6493 3.69373 26.6825 4.06021C26.7043 4.30036 26.7262 4.54197 26.7524 4.78692L26.7629 4.88578L26.8581 4.91455C27.5904 5.13593 28.3014 5.42354 28.9579 5.80858L29.0471 5.86093L29.1278 5.79609C29.3527 5.61521 29.5744 5.43033 29.7948 5.24644L29.8335 5.21419C30.0671 5.01936 30.2997 4.82585 30.536 4.63754L30.5361 4.63769L30.5418 4.63265C30.7423 4.45559 31.0824 4.49252 31.2644 4.70569L31.2641 4.70595L31.2718 4.71369C31.4332 4.87708 31.5946 5.04037 31.7561 5.20366C32.2928 5.74652 32.8295 6.28927 33.3634 6.83492L33.3632 6.83505L33.3688 6.84017C33.5547 7.01203 33.585 7.32223 33.4312 7.51773L33.4305 7.51852C33.2434 7.75963 33.0477 7.99481 32.8495 8.2313C32.8282 8.25669 32.8069 8.28211 32.7855 8.30754C32.6087 8.51839 32.4304 8.73092 32.2575 8.94771L32.1939 9.02747L32.2447 9.11594C32.6235 9.77547 32.9228 10.4807 33.126 11.2127L33.1528 11.3093L33.2523 11.3214C33.5403 11.3567 33.829 11.3824 34.1149 11.4079C34.1427 11.4104 34.1704 11.4129 34.1982 11.4154C34.512 11.4435 34.8224 11.4724 35.1304 11.5144C35.3708 11.5487 35.5591 11.7921 35.5449 12.0426L35.5447 12.0426L35.5447 12.052C35.5488 12.7604 35.548 13.4685 35.5472 14.1769C35.5469 14.4604 35.5466 14.7439 35.5466 15.0275V15.0347L35.5473 15.042C35.574 15.3168 35.3746 15.5867 35.115 15.6163L35.1125 15.6166C34.7677 15.6617 34.4298 15.6926 34.0886 15.7239C33.824 15.7481 33.5575 15.7726 33.2841 15.8039L33.1849 15.8153L33.1571 15.9112C32.9451 16.6434 32.6463 17.3483 32.2693 18.011L32.2185 18.1003L32.2834 18.1799C32.4468 18.3806 32.6105 18.5765 32.7734 18.7716C32.9935 19.0351 33.2124 19.2972 33.428 19.5674L33.4278 19.5676L33.4337 19.5741C33.6099 19.7701 33.5964 20.0982 33.405 20.2787L33.4049 20.2786L33.4014 20.2822C32.6839 21.0054 31.9635 21.7267 31.2404 22.4432L31.2403 22.443L31.2353 22.4485C31.0551 22.6455 30.7215 22.6623 30.5238 22.4842L30.5239 22.484L30.5174 22.4788C30.2922 22.2975 30.0697 22.1122 29.8459 21.9259L29.8262 21.9095C29.5962 21.718 29.3647 21.5255 29.1295 21.3369L29.0496 21.2729L28.9609 21.3239C28.3018 21.703 27.6006 22.0058 26.8688 22.205L26.7724 22.2312L26.7595 22.3303C26.7201 22.6321 26.6932 22.935 26.6666 23.2343L26.663 23.2756C26.6351 23.5895 26.6069 23.8995 26.5644 24.2069L26.5643 24.2076C26.532 24.4504 26.2925 24.6449 26.0435 24.6345L26.0435 24.6344L26.0366 24.6344C25.0108 24.6392 23.9867 24.6421 22.9628 24.6325L22.9596 24.6325C22.7176 24.6354 22.489 24.4381 22.4626 24.203L22.4622 24.2002C22.4134 23.8283 22.3804 23.46 22.347 23.0884C22.3248 22.8403 22.3024 22.5907 22.2751 22.3375L22.2644 22.2383L22.1687 22.2098C21.4358 21.9916 20.728 21.6992 20.0663 21.32L19.9764 21.2684L19.8964 21.3343C19.5764 21.5977 19.2573 21.8633 18.9388 22.1283C18.8264 22.2218 18.7142 22.3153 18.6019 22.4085L18.6005 22.4098C18.4382 22.5482 18.2726 22.6341 18.1104 22.6066L18.1105 22.6062L18.0985 22.6051C18.0162 22.5978 17.9405 22.5624 17.862 22.5042C17.7928 22.4528 17.7301 22.3907 17.6608 22.3222C17.649 22.3106 17.6371 22.2987 17.6249 22.2867C17.3078 21.9637 16.987 21.6442 16.6669 21.3254L16.6232 21.2819C16.2881 20.948 15.9538 20.6147 15.6239 20.2772L15.624 20.2771L15.6195 20.2728C15.4329 20.0972 15.4172 19.7779 15.5861 19.5865L15.5862 19.5866L15.5905 19.5813C15.8115 19.3065 16.0354 19.0371 16.2601 18.7667C16.4202 18.5741 16.5808 18.3809 16.741 18.1849L16.8062 18.1052L16.7552 18.0157C16.3773 17.3522 16.0787 16.6456 15.8696 15.9109L15.842 15.8139L15.7417 15.8029C15.4768 15.7737 15.2166 15.7503 14.9581 15.727C14.6006 15.6948 14.2462 15.6628 13.8868 15.6166L13.8857 15.6164C13.6524 15.5882 13.4566 15.3669 13.4588 15.1332L13.4588 15.13C13.4495 14.3616 13.4514 13.5931 13.4534 12.824C13.4541 12.5674 13.4547 12.3108 13.455 12.0541H13.4553L13.4547 12.0443C13.4383 11.7906 13.6308 11.5447 13.8748 11.5127L13.8752 11.5126C14.1827 11.4715 14.4923 11.4423 14.8049 11.4142C14.8428 11.4108 14.8808 11.4074 14.9188 11.404C15.1933 11.3794 15.4703 11.3547 15.7465 11.3225L15.846 11.3109L15.8734 11.2146C16.0815 10.4837 16.3792 9.77922 16.7587 9.12095L16.8098 9.03231L16.7459 8.95238C16.5673 8.72895 16.3841 8.50952 16.2022 8.29153C16.1869 8.2732 16.1716 8.25488 16.1563 8.23657C15.9588 8 15.7632 7.76466 15.5743 7.52445L15.5743 7.52442L15.572 7.52161C15.4121 7.32823 15.4422 7.01143 15.6332 6.83964L15.6334 6.83981L15.6393 6.83388C16.356 6.1133 17.0735 5.39396 17.7946 4.68045L17.7947 4.68054L17.7989 4.67607C17.9695 4.49294 18.2778 4.46739 18.4686 4.62157L18.4704 4.62302C18.757 4.84742 19.032 5.07795 19.3089 5.31018C19.5016 5.47168 19.6952 5.634 19.8943 5.79566L19.9736 5.86L20.0625 5.80985C20.7267 5.43531 21.4311 5.13507 22.1654 4.93482L22.2641 4.90792L22.2751 4.80624C22.3029 4.54867 22.326 4.2952 22.349 4.04327C22.3814 3.68721 22.4136 3.33423 22.4585 2.97707ZM23.5749 3.58451L23.4408 3.58533L23.4267 3.71874C23.4035 3.93764 23.384 4.15391 23.3646 4.36885C23.3325 4.72316 23.3009 5.07386 23.2539 5.42686L23.2538 5.42742C23.2273 5.63254 23.0372 5.79524 22.8075 5.83367L22.8074 5.83346L22.7996 5.83519C21.895 6.03643 21.0346 6.40737 20.2588 6.90731L20.2587 6.90711L20.252 6.912C20.0546 7.05527 19.774 7.05104 19.6009 6.89587L19.6011 6.8957L19.5945 6.89042C19.352 6.69642 19.1183 6.50125 18.8831 6.30482C18.693 6.14603 18.5019 5.98642 18.3043 5.82595L18.1993 5.74066L18.1037 5.83631C17.9938 5.94616 17.884 6.05597 17.7741 6.16578C17.4447 6.49496 17.1154 6.82415 16.7866 7.15437L16.6914 7.24994L16.7764 7.35469C16.9347 7.54996 17.0926 7.7382 17.2496 7.92534C17.4503 8.16462 17.6495 8.4021 17.8463 8.65019L17.8462 8.65027L17.8502 8.65499C18.0002 8.82871 18.005 9.1018 17.8659 9.29536L17.8657 9.29521L17.861 9.30259C17.4034 10.0245 17.0423 10.8147 16.8368 11.6513C16.8256 11.6913 16.816 11.7287 16.8069 11.7646C16.7885 11.8365 16.7717 11.9018 16.7471 11.9686C16.7124 12.0627 16.6694 12.1347 16.6059 12.1864L16.6056 12.1862L16.5982 12.1931C16.5404 12.247 16.4655 12.2791 16.3704 12.3001C16.2983 12.316 16.2263 12.3236 16.1471 12.3319C16.1173 12.3351 16.0865 12.3383 16.0542 12.3421C15.5786 12.3852 15.1031 12.4321 14.6282 12.4789L14.6282 12.4789L14.4929 12.4923V12.6282C14.4929 12.7841 14.4928 12.94 14.4928 13.0961C14.4926 13.5645 14.4924 14.0335 14.4938 14.5025L14.4943 14.637L14.628 14.6512C14.8465 14.6744 15.0617 14.6924 15.2749 14.7102C15.6551 14.7419 16.029 14.7731 16.4048 14.8325C16.6121 14.8758 16.7605 15.085 16.7982 15.3307L16.7978 15.3307L16.8003 15.3416C17.0025 16.2177 17.3637 17.054 17.8512 17.8078L17.851 17.8079L17.8561 17.8148C18.0009 18.013 18.0051 18.289 17.8548 18.4641L17.8546 18.464L17.8501 18.4698C17.6788 18.6903 17.4998 18.9051 17.3184 19.1211C17.2951 19.1488 17.2718 19.1765 17.2485 19.2043C17.0903 19.3923 16.9309 19.582 16.7759 19.7752L16.6917 19.8802L16.7869 19.9753C17.2261 20.4135 17.6643 20.8517 18.1025 21.2918L18.1977 21.3874L18.3028 21.3028C18.5089 21.137 18.7118 20.9675 18.9134 20.7991L18.9598 20.7602C19.1771 20.5787 19.3933 20.3987 19.6133 20.2239L19.6133 20.224L19.6179 20.22C19.7943 20.0679 20.0763 20.0828 20.2827 20.2349L20.2826 20.2351L20.2906 20.2403C21.0709 20.7413 21.9386 21.0929 22.8365 21.3079L22.8365 21.3081L22.8436 21.3094C23.0608 21.3505 23.2381 21.5361 23.259 21.7517L23.259 21.7517L23.2594 21.7553C23.3007 22.0949 23.3312 22.4321 23.362 22.772C23.3826 23.0003 23.4034 23.2298 23.4276 23.462L23.4416 23.5961L23.5763 23.5965C24.0445 23.5979 24.5133 23.5977 24.9819 23.5976C25.1382 23.5975 25.2944 23.5974 25.4506 23.5974H25.5842L25.5996 23.4648C25.6282 23.2201 25.6483 22.9811 25.6682 22.7449C25.6991 22.3773 25.7295 22.0164 25.7901 21.6514C25.8208 21.5277 25.9011 21.4413 26.0189 21.3752C26.1419 21.3062 26.2959 21.2655 26.4497 21.2356L26.4497 21.2357L26.456 21.2342C27.2912 21.0343 28.0741 20.6655 28.7901 20.2079L28.7902 20.2081L28.7955 20.2044C28.9778 20.0765 29.2308 20.0757 29.3958 20.2095L29.398 20.2113C29.6813 20.4322 29.9545 20.6608 30.23 20.8914C30.3929 21.0277 30.5566 21.1647 30.7237 21.3012L30.8286 21.3868L30.9245 21.2913C31.3647 20.853 31.8029 20.4138 32.2419 19.9739L32.2426 19.9731L32.3382 19.8774L32.2528 19.7725C32.1095 19.5965 31.9656 19.425 31.8225 19.2546C31.5954 18.9841 31.3704 18.716 31.1535 18.4364L31.1526 18.4352C31.0215 18.2695 31.0323 18.0129 31.1659 17.8246L31.166 17.8247L31.1703 17.818C31.6182 17.1097 31.9734 16.3361 32.1799 15.5182C32.1928 15.4727 32.2047 15.425 32.2159 15.38C32.2195 15.3656 32.223 15.3515 32.2264 15.3378C32.2414 15.2783 32.2563 15.2233 32.2744 15.1718C32.3105 15.0692 32.3557 14.9915 32.4254 14.9367L32.4257 14.9371L32.4343 14.9291C32.4884 14.8793 32.5578 14.8487 32.6456 14.8285C32.7191 14.8116 32.7948 14.804 32.8789 14.7954C32.8985 14.7935 32.9186 14.7914 32.9392 14.7892C33.3782 14.7531 33.8163 14.7082 34.2525 14.6634C34.2921 14.6594 34.3316 14.6553 34.3711 14.6513L34.5052 14.6375L34.5058 14.5028C34.5079 14.056 34.5075 13.609 34.5071 13.1625C34.5069 12.984 34.5068 12.8055 34.5068 12.6272V12.4928L34.3732 12.4781C34.131 12.4515 33.8932 12.4302 33.6572 12.4091C33.3201 12.3788 32.9863 12.3489 32.648 12.3043L32.648 12.3043L32.6449 12.304C32.4268 12.2797 32.2501 12.08 32.2129 11.8422L32.2132 11.8422L32.211 11.8324C32.0069 10.928 31.634 10.0666 31.1322 9.29089L31.1323 9.29082L31.1287 9.28574C30.9941 9.0955 31.0009 8.82706 31.1489 8.65754L31.149 8.65763L31.153 8.65257C31.3275 8.43443 31.5068 8.21957 31.6876 8.00372L31.7298 7.95341C31.8964 7.75452 32.064 7.55449 32.2282 7.35172L32.3126 7.24746L32.2183 7.15197C32.1317 7.06413 32.045 6.97626 31.9583 6.8884C31.6136 6.53898 31.269 6.18958 30.9231 5.84145L30.8275 5.74519L30.7222 5.8307C30.5317 5.98536 30.3471 6.1398 30.1636 6.29336C29.9181 6.49881 29.6745 6.70268 29.4211 6.90335L29.421 6.90323L29.4159 6.90764C29.2401 7.06014 28.9602 7.05419 28.7587 6.90664L28.7589 6.9064L28.751 6.90131C27.9673 6.3997 27.0966 6.04199 26.1924 5.83446L26.1924 5.83433L26.1861 5.83316C25.965 5.79226 25.7869 5.61035 25.7685 5.39736L25.7686 5.39735L25.768 5.39213C25.7286 5.0687 25.6991 4.74953 25.6693 4.42786C25.6476 4.19295 25.6257 3.9567 25.5998 3.7165L25.5853 3.58259H25.4506C25.2947 3.58259 25.1386 3.58247 24.9825 3.58235C24.5136 3.58199 24.0442 3.58163 23.5749 3.58451Z" fill="#20BF55" stroke="#20BF55" stroke-width="0.3"/>
<path d="M23.521 7.10424L23.5217 7.10412C25.038 6.8684 26.6372 7.18766 27.9404 7.99911L27.9411 7.99953C29.0478 8.68056 29.9451 9.69964 30.4743 10.8872L30.4747 10.8879C31.0498 12.1597 31.1977 13.6185 30.8918 14.9803L30.8917 14.9811C30.5924 16.3473 29.8364 17.6096 28.7722 18.5176L28.7713 18.5183C27.7166 19.4328 26.3571 19.9886 24.9644 20.0822L24.9634 20.0822C23.5076 20.1898 22.0209 19.7828 20.8211 18.9524L20.8201 18.9517C19.4705 18.0333 18.4871 16.5902 18.1365 14.9953L18.1363 14.9942C17.7697 13.3868 18.0476 11.6424 18.8949 10.2265L18.8949 10.2265L18.8956 10.2252C19.8678 8.5633 21.6168 7.39043 23.521 7.10424ZM23.9287 8.10162C22.4658 8.2505 21.0874 9.0225 20.187 10.1823C19.2186 11.4041 18.8185 13.05 19.1135 14.5805C19.3628 15.9389 20.1505 17.1867 21.2675 17.9978C22.3025 18.7581 23.6084 19.1388 24.891 19.0445C26.3091 18.9528 27.6778 18.2822 28.6189 17.2164C29.6158 16.1051 30.1221 14.5762 29.9875 13.0901C29.8613 11.5349 29.0334 10.0571 27.7726 9.13858C26.6794 8.32894 25.2812 7.94926 23.9287 8.10162Z" fill="#20BF55" stroke="#20BF55" stroke-width="0.3"/>
<path d="M26.6427 11.6201L26.6428 11.6202L26.6462 11.6167C26.8393 11.4185 27.2048 11.4348 27.3834 11.6492L27.3832 11.6493L27.3887 11.6552C27.5743 11.8551 27.5481 12.2057 27.3373 12.3881L27.3371 12.3879L27.3305 12.3944C26.2806 13.4222 25.231 14.4499 24.1775 15.4737L24.1773 15.4735L24.1713 15.4802C23.9841 15.6853 23.6364 15.7039 23.446 15.515L23.4461 15.515L23.443 15.5121C23.1703 15.256 22.9027 14.9935 22.6343 14.7294C22.6168 14.7122 22.5992 14.6949 22.5817 14.6776C22.3317 14.4316 22.0806 14.1845 21.8253 13.9421C21.8027 13.9191 21.7808 13.8975 21.7597 13.8765C21.7018 13.8192 21.6494 13.7673 21.6026 13.7086C21.5413 13.6319 21.5032 13.559 21.4927 13.4793L21.4931 13.4792L21.4909 13.4684C21.4611 13.3243 21.5086 13.171 21.61 13.0524C21.7115 12.9338 21.8557 12.8629 22.0023 12.8696L22.0023 12.8701L22.0147 12.8696C22.158 12.8643 22.2975 12.9473 22.4286 13.0757L22.4286 13.0757L22.4297 13.0768C22.5981 13.2383 22.7666 13.4039 22.9359 13.5703C23.1852 13.8153 23.4361 14.062 23.6907 14.2994L23.7954 14.3971L23.8978 14.297C24.1597 14.0413 24.421 13.7852 24.6823 13.5291C25.3339 12.8905 25.9853 12.2523 26.6427 11.6201Z" fill="#20BF55" stroke="#20BF55" stroke-width="0.3"/>
<path d="M32.0487 28.4401L32.0487 28.44L32.046 28.4415C31.4832 28.7388 30.9239 29.0447 30.3657 29.3501C30.1187 29.4852 29.8718 29.6202 29.625 29.7544C29.5716 29.7815 29.5189 29.8119 29.4699 29.8401L29.4547 29.8488C29.3994 29.8807 29.3482 29.9096 29.2969 29.9342C29.195 29.983 29.1048 30.0083 29.0117 29.9991L29.0047 29.9984L28.9976 29.9984C28.2823 29.9961 27.5664 29.9963 26.8511 29.9964C26.6722 29.9965 26.4933 29.9965 26.3145 29.9965L26.3131 29.9965C25.706 30.0023 25.1141 30.0061 24.5466 29.8614L24.5466 29.8614L24.5421 29.8604C24.1396 29.771 23.7628 29.6056 23.3779 29.4236C23.3192 29.3959 23.2603 29.3678 23.201 29.3394C22.8761 29.1842 22.5414 29.0242 22.1905 28.9063C19.7229 28.0071 16.8578 28.3164 14.6384 29.7207C14.1511 30.005 13.7288 30.3875 13.321 30.7571C13.233 30.8367 13.1458 30.9158 13.0586 30.9932C12.599 31.4013 12.1378 31.7682 11.58 31.9788C11.4974 31.7094 11.4156 31.4364 11.3337 31.1629C11.222 30.7901 11.1099 30.4164 10.9953 30.0494C10.9004 29.6758 10.5421 29.4032 10.1518 29.4242C9.83844 29.4239 9.52499 29.4235 9.21148 29.4231C7.63693 29.4211 6.06128 29.4191 4.48566 29.4271C3.95477 29.4115 3.54693 29.9477 3.66009 30.4501C4.28914 35.6135 4.91915 40.7778 5.54916 45.9412C5.5536 46.3891 5.94025 46.7905 6.41033 46.7555C7.24348 46.7555 8.07675 46.7563 8.9101 46.757C10.952 46.7588 12.9944 46.7605 15.0365 46.7517C15.3056 46.757 15.5337 46.6083 15.6691 46.409C15.8035 46.2112 15.8584 45.9469 15.7638 45.7007C15.6101 45.1716 15.4488 44.6507 15.288 44.1313C15.0911 43.4957 14.895 42.8622 14.7142 42.2184C15.291 41.8645 15.868 41.4977 16.4437 41.1316C16.9621 40.8021 17.4796 40.4731 17.9952 40.1546C18.351 39.9369 18.7864 39.8545 19.1997 39.9239C20.1611 40.1012 21.1223 40.2788 22.0837 40.4564C23.566 40.7302 25.0484 41.0041 26.5314 41.2769L26.5315 41.2769C28.5674 41.6511 30.7397 41.363 32.5817 40.401L32.5895 40.397L32.5968 40.392C35.144 38.6556 37.685 36.9086 40.2254 35.162C41.7886 34.0873 43.3516 33.0127 44.9158 31.9408C45.2615 31.7408 45.4814 31.2784 45.2816 30.8727L45.2817 30.8726L45.279 30.8676C44.7115 29.8177 43.5885 29.1107 42.4077 29.0095C41.6776 28.9346 40.9481 29.1109 40.3087 29.4392C39.6586 28.7788 38.7429 28.3576 37.7966 28.3945C37.2496 28.3971 36.7504 28.6164 36.3069 28.8656C35.1104 27.9502 33.4043 27.7593 32.0487 28.4401ZM33.4292 29.7044L33.4292 29.7045L33.4341 29.7036C33.8152 29.6338 34.2095 29.676 34.5859 29.7931C34.2357 29.9918 33.8811 30.1802 33.5243 30.3698C33.3035 30.4872 33.0818 30.605 32.8598 30.726C32.6021 30.5609 32.3308 30.4197 32.0485 30.3036C32.0908 30.2801 32.1328 30.2565 32.1745 30.2329C32.1888 30.2249 32.203 30.2169 32.2171 30.2089C32.3416 30.1386 32.4635 30.0698 32.5872 30.0055C32.8623 29.8626 33.1354 29.7482 33.4292 29.7044ZM15.7073 30.9896L15.7073 30.9896L15.7121 30.9868C17.7232 29.8025 20.3252 29.7243 22.4081 30.7746C23.3696 31.281 24.4406 31.6217 25.5465 31.6325L25.5471 31.6325C26.4681 31.638 27.3893 31.6373 28.31 31.6365C28.8275 31.6361 29.3449 31.6357 29.862 31.6364L29.8641 31.6363L29.8894 31.636C30.4284 31.6293 30.9463 31.6228 31.4153 31.8181L31.4152 31.8182L31.4207 31.8203C32.1735 32.1001 32.7674 32.7386 33.0325 33.4978C32.5758 33.4809 32.1168 33.4577 31.6562 33.4344C29.7878 33.3398 27.8933 33.2439 26.0268 33.5655L26.0194 33.5668L26.0122 33.5688C25.7261 33.6483 25.5419 33.8867 25.4771 34.142C25.4128 34.3952 25.4594 34.6903 25.6641 34.8982C25.8139 35.0736 26.0108 35.1369 26.1996 35.1526C26.3732 35.167 26.5543 35.1421 26.7019 35.1217C26.7121 35.1203 26.722 35.119 26.7319 35.1176C28.2976 34.906 29.8703 34.986 31.4559 35.0666C31.94 35.0912 32.4253 35.1158 32.912 35.1323V35.1323L32.9154 35.1324C33.0552 35.134 33.193 35.143 33.3353 35.1524C33.4001 35.1567 33.4658 35.161 33.5332 35.1647C33.744 35.1763 33.963 35.1813 34.184 35.1532L34.1915 35.1522L34.1989 35.1505C34.6312 35.0503 34.8103 34.6298 34.8183 34.269C36.1459 33.5544 37.4726 32.8383 38.7993 32.1223C39.3092 31.847 39.8191 31.5718 40.3291 31.2967C40.4434 31.2385 40.5558 31.1761 40.6657 31.1149L40.6808 31.1065C40.7868 31.0474 40.8906 30.9896 40.9956 30.9353C41.2155 30.8217 41.433 30.7276 41.6637 30.679L41.665 30.6787C42.2339 30.5536 42.8419 30.7051 43.313 31.0499C42.0886 31.8908 40.8646 32.7321 39.6406 33.5733C37.0324 35.3659 34.4244 37.1583 31.8134 38.9461C30.3024 39.7455 28.5067 39.9644 26.8249 39.6621C24.3654 39.2085 21.9057 38.7549 19.4451 38.305L19.4451 38.305L19.443 38.3047C18.5358 38.1521 17.597 38.4077 16.8587 38.9319C16.1241 39.3977 15.389 39.8616 14.6535 40.3258C14.5057 40.4191 14.3579 40.5124 14.21 40.6057C14.0106 39.9517 13.8111 39.2977 13.6115 38.6438C13.0927 36.9437 12.5739 35.2437 12.0583 33.5432C12.4142 33.4072 12.7683 33.2483 13.0981 33.0395C13.5512 32.7591 13.9444 32.402 14.3256 32.0559C14.355 32.0292 14.3843 32.0025 14.4136 31.976C14.8267 31.6017 15.2318 31.2464 15.7073 30.9896ZM37.1805 30.2611L37.1879 30.2571L37.1948 30.2522C37.6535 29.9317 38.2642 29.9936 38.7526 30.2817C37.7141 30.8471 36.6734 31.4076 35.6321 31.9684C35.2352 32.1822 34.8381 32.396 34.4411 32.6102C34.3327 32.3787 34.2098 32.1538 34.0727 31.9379C34.4993 31.7072 34.927 31.477 35.3548 31.2467C35.9637 30.9189 36.5731 30.5908 37.1805 30.2611ZM7.10287 45.1176C6.53129 40.4325 5.95972 35.7475 5.38906 31.0624C5.87457 31.0631 6.35956 31.0625 6.84431 31.062C7.7642 31.061 8.68323 31.06 9.60328 31.067C10.4768 33.9493 11.3558 36.8301 12.2348 39.7108C12.7847 41.513 13.3346 43.3151 13.8832 45.1176H13.8771H13.8633H13.8494H13.8355H13.8216H13.8077H13.7938H13.7799H13.766H13.7521H13.7382H13.7243H13.7104H13.6965H13.6826H13.6687H13.6548H13.6409H13.627H13.6131H13.5992H13.5853H13.5714H13.5575H13.5437H13.5298H13.5159H13.502H13.4881H13.4742H13.4603H13.4464H13.4325H13.4186H13.4047H13.3908H13.3769H13.363H13.3491H13.3352H13.3213H13.3074H13.2935H13.2796H13.2657H13.2518H13.2379H13.2241H13.2102H13.1963H13.1824H13.1685H13.1546H13.1407H13.1268H13.1129H13.099H13.0851H13.0712H13.0573H13.0434H13.0295H13.0156H13.0017H12.9878H12.9739H12.96H12.9461H12.9322H12.9183H12.9045H12.8906H12.8767H12.8628H12.8489H12.835H12.8211H12.8072H12.7933H12.7794H12.7655H12.7516H12.7377H12.7238H12.7099H12.696H12.6821H12.6682H12.6543H12.6404H12.6265H12.6126H12.5987H12.5848H12.5709H12.5571H12.5432H12.5293H12.5154H12.5015H12.4876H12.4737H12.4598H12.4459H12.432H12.4181H12.4042H12.3903H12.3764H12.3625H12.3486H12.3347H12.3208H12.3069H12.293H12.2791H12.2652H12.2513H12.2374H12.2236H12.2097H12.1958H12.1819H12.168H12.1541H12.1402H12.1263H12.1124H12.0985H12.0846H12.0707H12.0568H12.0429H12.029H12.0151H12.0012H11.9873H11.9734H11.9595H11.9456H11.9317H11.9178H11.9039H11.89H11.8761H11.8623H11.8484H11.8345H11.8206H11.8067H11.7928H11.7789H11.765H11.7511H11.7372H11.7233H11.7094H11.6955H11.6816H11.6677H11.6538H11.6399H11.626H11.6121H11.5982H11.5843H11.5704H11.5565H11.5426H11.5287H11.5148H11.5009H11.4871H11.4732H11.4593H11.4454H11.4315H11.4176H11.4037H11.3898H11.3759H11.362H11.3481H11.3342H11.3203H11.3064H11.2925H11.2786H11.2647H11.2508H11.2369H11.223H11.2091H11.1952H11.1813H11.1674H11.1535H11.1396H11.1257H11.1118H11.0979H11.0841H11.0702H11.0563H11.0424H11.0285H11.0146H11.0007H10.9868H10.9729H10.959H10.9451H10.9312H10.9173H10.9034H10.8895H10.8756H10.8617H10.8478H10.8339H10.82H10.8061H10.7922H10.7783H10.7644H10.7505H10.7366H10.7227H10.7088H10.6949H10.681H10.6672H10.6533H10.6394H10.6255H10.6116H10.5977H10.5838H10.5699H10.556H10.5421H10.5282H10.5143H10.5004H10.4865H10.4726H10.4587H10.4448H10.4309H10.417H10.4031H10.3892H10.3753H10.3614H10.3475H10.3336H10.3197H10.3058H10.2919H10.278H10.2641H10.2502H10.2363H10.2224H10.2085H10.1946H10.1808H10.1669H10.153H10.1391H10.1252H10.1113H10.0974H10.0835H10.0696H10.0557H10.0418H10.0279H10.014H10.0001H9.98619H9.97229H9.95839H9.94449H9.9306H9.9167H9.9028H9.8889H9.87501H9.86111H9.84721H9.83331H9.81942H9.80552H9.79162H9.77772H9.76382H9.74993H9.73603H9.72213H9.70823H9.69434H9.68044H9.66654H9.65264H9.63874H9.62485H9.61095H9.59705H9.58315H9.56926H9.55536H9.54146H9.52756H9.51366H9.49977H9.48587H9.47197H9.45807H9.44417H9.43028H9.41638H9.40248H9.38858H9.37468H9.36079H9.34689H9.33299H9.31909H9.30519H9.29129H9.2774H9.2635H9.2496H9.2357H9.2218H9.20791H9.19401H9.18011H9.16621H9.15231H9.13841H9.12452H9.11062H9.09672H9.08282H9.06892H9.05502H9.04112H9.02723H9.01333H8.99943H8.98553H8.97163H8.95773H8.94384H8.92994H8.91604H8.90214H8.88824H8.87434H8.86044H8.84654H8.83265H8.81875H8.80485H8.79095H8.77705H8.76315H8.74925H8.73535H8.72146H8.70756H8.69366H8.67976H8.66586H8.65196H8.63806H8.62416H8.61026H8.59637H8.58247H8.56857H8.55467H8.54077H8.52687H8.51297H8.49907H8.48517H8.47127H8.45738H8.44348H8.42958H8.41568H8.40178H8.38788H8.37398H8.36008H8.34618H8.33228H8.31838H8.30448H8.29058H8.27668H8.26279H8.24889H8.23499H8.22109H8.20719H8.19329H8.17939H8.16549H8.15159H8.13769H8.12379H8.10989H8.09599H8.08209H8.06819H8.05429H8.04039H8.02649H8.01259H7.99869H7.98479H7.97089H7.95699H7.94309H7.92919H7.91529H7.90139H7.88749H7.87359H7.85969H7.8458H7.83189H7.818H7.80409H7.79019H7.77629H7.76239H7.74849H7.73459H7.72069H7.70679H7.69289H7.67899H7.66509H7.65119H7.63729H7.62339H7.60949H7.59559H7.58169H7.56779H7.55389H7.53999H7.52609H7.51219H7.49829H7.48439H7.47049H7.45659H7.44269H7.42879H7.41489H7.40099H7.38709H7.37318H7.35928H7.34538H7.33148H7.31758H7.30368H7.28978H7.27588H7.26198H7.24808H7.23418H7.22028H7.20638H7.19248H7.17857H7.16467H7.15077H7.13687H7.12297H7.10907H7.10287Z" fill="#082241" stroke="#082241" stroke-width="0.3"/>
<path d="M9.75029 41.6362L9.7503 41.6362L9.75309 41.6354C10.2535 41.4805 10.8267 41.5858 11.242 41.9074L11.2419 41.9074L11.2439 41.9089C11.6847 42.2386 11.938 42.8029 11.8925 43.3526L11.8923 43.3552C11.8555 43.9206 11.5029 44.4551 10.9965 44.7096L10.9965 44.7095L10.9942 44.7108C10.5095 44.965 9.89671 44.9584 9.42125 44.6874L9.42126 44.6874L9.41884 44.6861C8.85363 44.3776 8.50107 43.7177 8.57346 43.0785L8.57354 43.0785L8.57393 43.0735C8.62637 42.4155 9.11609 41.819 9.75029 41.6362ZM9.91086 42.6902C9.6926 42.8098 9.59971 43.0431 9.60852 43.2561C9.61732 43.4688 9.72894 43.6933 9.95673 43.7937C10.1793 43.9136 10.4283 43.8597 10.6014 43.732C10.7747 43.6043 10.8997 43.3821 10.8503 43.1342C10.8229 42.9156 10.6735 42.7493 10.4978 42.6657C10.3217 42.582 10.098 42.5712 9.91086 42.6902Z" fill="#082241" stroke="#082241" stroke-width="0.3"/>
</svg>
