<?xml version="1.0" encoding="utf-8"?>
<!-- Generator: Adobe Illustrator 28.4.1, SVG Export Plug-In . SVG Version: 6.00 Build 0)  -->
<svg version="1.1" id="Layer_1" xmlns="http://www.w3.org/2000/svg" xmlns:xlink="http://www.w3.org/1999/xlink" x="0px" y="0px"
	 viewBox="0 0 775.52 414.96" style="enable-background:new 0 0 775.52 414.96;" xml:space="preserve">
<style type="text/css">
	.st0{fill:#FFFFFF;}
</style>
<g>
	<g>
		<path class="st0" d="M464.43,64.81L464.43,64.81l-4.04,0c-3.44,0-6.86-0.41-10.21-1.21l0,0c-6.34-1.52-12.83-2.29-19.34-2.29
			H330.02c-6.5,0-12.99,0.77-19.32,2.29l-0.03,0.01c-3.34,0.8-6.76,1.21-10.2,1.21h-4.03v0h-70.78v0h-4.04
			c-3.44,0-6.86-0.4-10.21-1.21c-3.17-0.76-6.38-1.34-9.6-1.72c-3.23-0.39-6.48-0.58-9.74-0.58h-43.63c-3.76,0-6.81,3.1-6.81,6.94
			c0,3.83,3.05,6.94,6.81,6.94h43.63c6.56,0,13.1-0.78,19.48-2.33c3.3-0.8,6.68-1.17,10.07-1.17h4.04v0h74.8
			c3.43,0,6.86,0.41,10.2,1.21l0.03,0.01c6.33,1.52,12.81,2.29,19.32,2.29h100.83c6.51,0,13-0.77,19.34-2.29
			c3.35-0.8,6.77-1.21,10.21-1.21h314.83v-6.86H464.43z"/>
		<rect x="136.32" y="4.69" class="st0" width="638.85" height="6.86"/>
		<path class="st0" d="M362.55,31.59c3.43,0,6.86,0.41,10.2,1.21l0.03,0.01c6.33,1.52,12.81,2.29,19.32,2.29h45.3
			c6.51,0,13-0.77,19.34-2.29l0,0c3.35-0.8,6.77-1.21,10.21-1.21h4.04h304.19v-6.86H470.98h-4.04c-3.44,0-6.86-0.41-10.21-1.21v0
			c-6.34-1.52-12.83-2.29-19.34-2.29h-45.3c-6.5,0-12.99,0.77-19.32,2.29l-0.03,0.01c-3.34,0.8-6.76,1.21-10.2,1.21h-4.03H136.32
			v6.86h222.19H362.55z"/>
		<path class="st0" d="M318.53,51.63c3.43,0,6.86,0.41,10.2,1.21l0.03,0.01c6.33,1.52,12.81,2.29,19.32,2.29h82.78
			c6.51,0,13-0.77,19.34-2.29c3.35-0.8,6.77-1.21,10.21-1.21h4.04h310.74v-6.86H464.43h-4.04c-3.44,0-6.86-0.41-10.21-1.21l0,0
			c-6.34-1.52-12.83-2.29-19.34-2.29h-82.78c-6.5,0-12.99,0.77-19.32,2.29l-0.03,0.01c-3.34,0.8-6.76,1.21-10.2,1.21h-4.03H136.32
			v6.86H314.5H318.53z"/>
		<path class="st0" d="M433.34,104.9c-3.44,0-6.86-0.41-10.21-1.21l0,0c-6.34-1.52-12.83-2.29-19.34-2.29h-97.13
			c-6.5,0-12.99,0.77-19.32,2.29l-0.03,0.01c-3.34,0.8-6.76,1.21-10.2,1.21h-1.75v0h-4.04c-3.44,0-6.86-0.4-10.21-1.21
			c-3.17-0.76-6.38-1.34-9.6-1.72c-3.23-0.39-6.48-0.58-9.74-0.58h-83.04c-3.76,0-6.81,3.1-6.81,6.93v0c0,3.83,3.05,6.94,6.81,6.94
			h83.04c6.56,0,13.1-0.78,19.48-2.33c3.3-0.8,6.68-1.17,10.07-1.17h4.04v0h1.75c3.43,0,6.86,0.41,10.2,1.21l0.03,0.01
			c6.33,1.52,12.81,2.29,19.32,2.29h97.13c6.51,0,13-0.77,19.34-2.29c3.35-0.8,6.77-1.21,10.21-1.21h4.04h337.85v-6.86H437.38
			H433.34z"/>
		<path class="st0" d="M416.52,124.94c-3.44,0-6.86-0.41-10.21-1.21v0c-6.34-1.52-12.83-2.29-19.34-2.29h-80.31
			c-6.5,0-12.99,0.77-19.32,2.29l-0.03,0.01c-2.42,0.58-4.88,0.95-7.36,1.11c-2.48-0.16-4.95-0.53-7.38-1.11
			c-3.17-0.76-6.38-1.34-9.6-1.72c-3.23-0.39-6.48-0.58-9.74-0.58H170.2c-3.76,0-6.81,3.1-6.81,6.94s3.05,6.93,6.81,6.93h83.04
			c6.56,0,13.1-0.78,19.48-2.33c2.37-0.57,4.79-0.92,7.23-1.08c2.48,0.16,4.95,0.53,7.37,1.11l0.03,0.01
			c6.33,1.52,12.81,2.29,19.32,2.29h80.31c6.51,0,13-0.77,19.34-2.29l0,0c3.35-0.8,6.77-1.21,10.21-1.21h4.04h354.66v-6.86H420.56
			H416.52z"/>
		<path class="st0" d="M394.36,144.98h-4.04c-3.44,0-6.86-0.41-10.21-1.21l0,0c-6.34-1.52-12.83-2.29-19.34-2.29h-49.82
			c-6.5,0-12.99,0.77-19.32,2.29l-0.03,0.01c-2.48,0.6-5.01,0.97-7.56,1.13c-2.55-0.15-5.08-0.53-7.58-1.13
			c-3.17-0.76-6.38-1.34-9.6-1.72c-3.23-0.39-6.48-0.58-9.74-0.58h-73.19c-3.76,0-6.81,3.1-6.81,6.93s3.05,6.94,6.81,6.94h73.19
			c6.56,0,13.1-0.78,19.48-2.33c2.44-0.59,4.93-0.95,7.43-1.09c2.55,0.15,5.08,0.53,7.57,1.13l0.03,0.01
			c6.33,1.52,12.81,2.29,19.32,2.29h49.82c6.51,0,13-0.77,19.34-2.29l0,0c3.35-0.8,6.77-1.21,10.21-1.21h384.91v-6.86L394.36,144.98
			L394.36,144.98z"/>
		<path class="st0" d="M441.96,205.1c-3.44,0-6.86-0.41-10.21-1.21l0,0c-6.34-1.52-12.83-2.29-19.34-2.29h-61.89
			c-6.5,0-12.99,0.77-19.32,2.29l-0.03,0.01c-2.82,0.68-5.7,1.05-8.6,1.16c-2.91-0.1-5.81-0.48-8.65-1.16
			c-3.17-0.76-6.38-1.34-9.6-1.72c-3.23-0.39-6.48-0.58-9.74-0.58h-26.42c-3.76,0-6.81,3.1-6.81,6.94c0,3.83,3.05,6.93,6.81,6.93
			h26.42c6.56,0,13.1-0.78,19.48-2.33c2.78-0.67,5.62-1.03,8.47-1.13c2.91,0.1,5.8,0.48,8.63,1.16l0.03,0.01
			c6.33,1.52,12.81,2.29,19.32,2.29h61.89c6.51,0,13-0.77,19.34-2.29l0,0c3.35-0.8,6.77-1.21,10.21-1.21H446h329.23v-6.86H446
			H441.96z"/>
		<path class="st0" d="M453.99,225.15h-4.04c-3.44,0-6.86-0.41-10.21-1.21v0c-6.34-1.52-12.83-2.29-19.34-2.29h-55.55
			c-6.5,0-12.99,0.77-19.32,2.29l-0.03,0.01c-3.33,0.8-6.73,1.2-10.15,1.21h-0.66c-3.44,0-6.86-0.4-10.21-1.21
			c-3.17-0.76-6.38-1.34-9.6-1.72c-3.23-0.39-6.48-0.58-9.74-0.58h-41.57c-3.76,0-6.81,3.1-6.81,6.93s3.05,6.94,6.81,6.94h41.57
			c6.56,0,13.1-0.78,19.48-2.33c3.3-0.8,6.68-1.17,10.07-1.17h0.67c3.42,0,6.82,0.41,10.15,1.21l0.03,0.01
			c6.33,1.52,12.81,2.29,19.32,2.29h55.55c6.51,0,13-0.77,19.34-2.29c3.35-0.8,6.77-1.21,10.21-1.21h325.27v-6.86L453.99,225.15
			L453.99,225.15z"/>
		<path class="st0" d="M414.02,185.06h-4.04c-3.44,0-6.86-0.4-10.21-1.21c-3.17-0.76-6.38-1.34-9.6-1.72
			c-3.23-0.39-6.48-0.58-9.74-0.58H241.21c-3.76,0-6.81,3.1-6.81,6.93v0c0,3.83,3.05,6.93,6.81,6.93h139.23
			c6.56,0,13.1-0.78,19.48-2.33c3.3-0.8,6.68-1.17,10.07-1.17h4.04v0h361.2v-6.86L414.02,185.06L414.02,185.06z"/>
		<path class="st0" d="M356.76,165.02h-4.04c-3.44,0-6.86-0.4-10.21-1.21c-3.17-0.76-6.38-1.34-9.6-1.72
			c-3.23-0.39-6.48-0.58-9.74-0.58H204.44c-3.76,0-6.81,3.1-6.81,6.93c0,3.83,3.05,6.94,6.81,6.94h118.74
			c6.56,0,13.1-0.78,19.48-2.33c3.3-0.8,6.68-1.17,10.07-1.17h4.04v0h418.46v-6.86L356.76,165.02L356.76,165.02z"/>
		<path class="st0" d="M464.43,245.19h-4.04c-3.44,0-6.86-0.41-10.21-1.21l0,0c-6.34-1.52-12.83-2.29-19.34-2.29h-44.96
			c-6.5,0-12.99,0.77-19.32,2.29l-0.03,0.01c-3.34,0.8-6.76,1.21-10.2,1.21h-4.03v0h-3.68v0h-4.04c-3.44,0-6.86-0.4-10.21-1.21
			c-3.17-0.76-6.38-1.34-9.6-1.72c-3.23-0.39-6.48-0.58-9.74-0.58h-46.88c-3.76,0-6.81,3.1-6.81,6.93c0,3.83,3.05,6.94,6.81,6.94
			h46.88c6.56,0,13.1-0.78,19.48-2.33c3.3-0.8,6.68-1.17,10.07-1.17h4.04v0h7.71c3.43,0,6.86,0.41,10.2,1.21l0.03,0.01
			c6.33,1.52,12.81,2.29,19.32,2.29h44.96c6.51,0,13-0.77,19.34-2.29c3.35-0.8,6.77-1.21,10.21-1.21h314.83v-6.86L464.43,245.19
			L464.43,245.19z"/>
		<path class="st0" d="M456.14,265.23c-3.44,0-6.86-0.41-10.21-1.21l0,0c-6.34-1.52-12.83-2.29-19.34-2.29h-1.43
			c-6.5,0-12.99,0.77-19.32,2.29l-0.03,0.01c-3.34,0.8-6.76,1.21-10.2,1.21h-4.03h-47.5v0h-4.04c-3.44,0-6.86-0.4-10.21-1.21
			c-3.17-0.76-6.38-1.34-9.6-1.72c-3.23-0.39-6.48-0.58-9.74-0.58h-27.91c-3.76,0-6.81,3.1-6.81,6.93v0c0,3.83,3.05,6.94,6.81,6.94
			h27.91c6.56,0,13.1-0.78,19.48-2.33c3.3-0.8,6.68-1.17,10.07-1.17h4.04v0h47.5h4.03c3.43,0,6.86,0.41,10.2,1.21l0.03,0.01
			c6.33,1.52,12.81,2.29,19.32,2.29h1.43c6.51,0,13-0.77,19.34-2.29v0c3.35-0.8,6.77-1.21,10.21-1.21h4.04h315.05v-6.86H460.18
			H456.14z"/>
		<path class="st0" d="M451.54,84.85h-4.04c-3.44,0-6.86-0.41-10.21-1.21v0c-6.34-1.52-12.83-2.29-19.34-2.29H313.23
			c-6.5,0-12.99,0.77-19.32,2.29l-0.03,0.01c-3.34,0.8-6.76,1.21-10.2,1.21h-4.03v0h-24.43v0h-4.04c-3.44,0-6.86-0.4-10.21-1.21
			c-3.17-0.76-6.38-1.34-9.6-1.72c-3.23-0.39-6.48-0.58-9.74-0.58h-66.53c-3.76,0-6.81,3.1-6.81,6.93c0,3.83,3.05,6.94,6.81,6.94
			h66.53c6.56,0,13.1-0.78,19.48-2.33c3.3-0.8,6.68-1.17,10.07-1.17h4.04v0h28.46c3.43,0,6.86,0.41,10.2,1.21l0.03,0.01
			c6.33,1.52,12.81,2.29,19.32,2.29h104.72c6.51,0,13-0.77,19.34-2.29c3.35-0.8,6.77-1.21,10.21-1.21h327.73v-6.86L451.54,84.85
			L451.54,84.85z"/>
		<path class="st0" d="M342.22,285.06h-19.21c-2.64,0-5.24-0.56-7.62-1.65l0,0c-2.38-1.08-4.98-1.65-7.62-1.65h-0.84
			c-3.76,0-6.81,2.92-6.81,6.52v0c0,3.6,3.05,6.52,6.81,6.52h0.84c2.64,0,5.24-0.56,7.62-1.65c0.94-0.43,1.92-0.77,2.92-1.04h456.92
			v-6.86h-433V285.06z"/>
	</g>
	<g>
		<path class="st0" d="M774.44,53.01c0.12-0.09,0.23-0.17,0.35-0.26c0,0.12,0,0.23,0,0.35C774.67,53.07,774.56,53.04,774.44,53.01z"
			/>
		<g>
			<path class="st0" d="M748.2,319.99c-4.86,3.69-9.76,7.34-14.33,11.37c-2.38,2.1-4.16,4.55-5.12,7.61
				c0.88,0.08,1.27-0.51,1.76-0.87c3.14-2.34,6.21-4.76,9.38-7.05c7.75-5.6,15.19-11.55,22.35-17.82c5.13-4.5,9.5-9.58,12.54-15.64
				c0-0.35,0-0.7,0-1.04C766.16,304.61,757.66,312.8,748.2,319.99z"/>
			<path class="st0" d="M463.65,405.18c-0.83-0.58-1.51-0.63-2.07,0.3c-0.78,1.3-1.51,2.62-2.36,3.88
				c-0.85,1.27-0.83,2.26,0.52,3.23c0.89,0.64,1.73,1.4,2.3,2.37c0.36,0,0.72,0,1.08,0c0.6-1.37,1.74-2.42,2.3-3.83
				C466.34,408.74,465.76,406.66,463.65,405.18z"/>
			<path class="st0" d="M143.52,322.24c2.27,0.6,4.6,0.83,6.96,0.79c10.57-0.07,18.76-4.25,24.6-12.9
				c5.27-7.81,7.37-16.55,8.39-25.59c1.18-10.49,0.47-21.11,2.05-31.59c0.06-0.4,0.17-0.91-0.35-1.04
				c-0.51-0.13-0.69,0.38-0.86,0.73c-1.29,2.68-2.51,5.39-3.87,8.03c-1.45,2.82-2.01,5.76-2.07,8.89
				c-0.15,7.48-0.38,14.96-0.66,22.44c-0.32,8.57-4.26,13.93-12.26,16.55c-6.23,2.04-12.61,2.15-18.97,0.57
				c-4.22-1.05-5.88-3.42-5.63-7.67c0.04-0.61,0.33-1.49-0.47-1.66c-0.97-0.2-1,0.81-1.18,1.43c-1.21,4.21-1.8,8.52-2,12.87
				C137,318.3,139.28,321.12,143.52,322.24z"/>
			<path class="st0" d="M526.68,362.87c2.01-0.94,4.38-6.2,3.71-8.6c-0.69,0.95-1.35,1.76-1.88,2.64c-0.55,0.91-1.36,1.26-2.27,0.9
				c-2.05-0.81-3.31,0.24-4.5,1.55c-0.67,0.74-1.26,1.55-1.95,2.28c-3.05,3.23-8.23,2.24-9.77-1.87c-0.56-1.5-0.64-3.06-0.53-4.64
				c0.33-4.45,1.18-8.83,1.94-13.41c-1.07,0.23-1.19,0.94-1.47,1.46c-2.97,5.33-4.05,11.14-4.27,17.08
				c-0.12,3.16-0.8,6.03-2.45,8.76c-1.36,2.24-2.68,4.53-3.51,7.03c-1.25,3.75-0.69,5.08,2.95,6.83c3.38,1.63,3.74,2.79,1.72,5.9
				c-0.47,0.73-1.06,1.41-1.69,2.02c-3.39,3.3-7.57,4.81-12.31,4.94c-8.28,0.23-12.21-4.53-10.21-12.31
				c0.62-2.42,1.62-4.72,2.62-7.02c1.28-2.93,2.53-5.88,3.75-8.83c0.18-0.43,0.63-1.13,0.02-1.41c-0.73-0.34-0.96,0.5-1.19,0.96
				c-2.86,5.54-5.78,11.06-7.54,17.06c-0.95,3.26-1.64,6.52-1.39,9.93c0.54,7.41,5.62,11.74,13.16,11.04
				c3.26-0.3,6.09-1.67,8.54-3.76c5.71-4.89,8.78-11.22,10.35-18.28c0.9-4.05,0.98-7.94-3.83-10.04c-0.47-0.21-0.84-0.7-0.57-1.31
				c0.6-1.36,1.15-2.74,2.34-3.82c2.66,5.51,8.29,5.47,11.48,0.4c0.71-1.14,1.5-2.24,2.35-3.28c1.17-1.44,2.64-2.34,4.67-2.01
				C525.5,363.18,526.1,363.14,526.68,362.87z"/>
			<path class="st0" d="M413.04,358.06c-0.23-0.07-0.45-0.15-0.68-0.21c-1.16-0.31-2.26-0.39-3.26-0.27
				c-3.01,0.38-5.18,2.66-5.6,6.22c0,0,0,0,0,0c0,0,0,0,0,0c0.41,0.06,0.59-0.18,0.76-0.43c0.06-0.08,0.11-0.17,0.17-0.25
				c1.9-2.44,2.96-2.76,6.01-1.76c0.79,0.26,1.58,0.55,2.35,0.88c1.83,0.78,1.87,0.86,0.46,2.14c-2.4,2.18-4.82,4.37-7.49,6.25
				c-2.85,2-6.01,3.35-9.48,3.98c-0.68,0.12-1.3,0.29-1.35-0.77c-0.05-1.2-0.63-0.94-1.36-0.39c-3.18,2.44-6.73,4.19-10.62,5.35
				c-9.21,2.73-18.63,3.1-28.15,2.55c-2.99-0.17-5.97-0.39-8.9-1.14c-2.71-0.69-4.23-2.28-4.55-4.95c-0.07-0.56-0.09-1.12-0.66-1.48
				c-0.68,0.5-0.71,1.15-0.83,1.76c-0.44,2.34-0.72,4.7-0.71,7.09c0.02,4.82,2.02,7.05,6.97,7.58c9.08,0.97,18.1,0.52,27.01-1.41
				c6.51-1.41,12.83-3.56,17.45-8.4c2.22-2.33,4.03-3.1,6.89-1.67c2.28,1.14,3.95,0.24,5.72-1.37c5.42-4.92,10.65-10.06,16.64-14.37
				c1.63-1.18,2.02-2.88,2.28-4.73C417.75,359.55,417.75,359.55,413.04,358.06z"/>
			<path class="st0" d="M712.23,379.29c0.37-0.65,0.95-1.19,1.46-1.77c1.39-1.6,3.24-2.28,5.3-2c1.55,0.21,2.52-0.35,3.42-1.4
				c2.67-3.11,4.39-6.64,4.83-10.68c0.82-7.51,0.71-15.06,1.27-22.59c0.03-0.47,0.17-1.03-0.43-1.39c-0.13,0.14-0.3,0.25-0.35,0.4
				c-1.95,5.58-4.41,11.04-3.67,17.17c0.19,1.55,0.09,3.13,0.07,4.7c-0.02,2.2-0.1,4.4-0.72,6.55c-0.4,1.38-1.13,2.16-2.73,1.67
				c-1.38-0.43-2.59,0-3.76,0.67c-1.16,0.67-2.02,1.65-2.75,2.72c-1.62,2.39-3.95,3.84-6.61,4.88c-2.45,0.96-4.98,1.69-7.56,2.22
				c-9.12,1.9-18.36,1.73-27.61,1.3c-1.67-0.08-3.3-0.53-4.86-1.19c-1.73-0.73-2.79-1.91-3.11-3.75c-0.13-0.76-0.06-1.64-0.74-2.24
				c-0.37,0.1-0.5,0.36-0.57,0.64c-0.7,3.07-1.22,6.17-0.93,9.31c0.37,3.99,2.32,5.89,6.51,6.39c9.88,1.18,19.65,0.57,29.27-1.88
				C703.96,387.52,709.13,384.81,712.23,379.29z"/>
			<path class="st0" d="M594.99,332.8c-0.57,0.28-0.76,0.86-1.07,1.34c-2.46,3.91-3.7,8.12-3.66,12.72c0.02,2.6,0.23,5.23-0.23,7.82
				c-0.36,2.03-2.07,3.26-4.1,3.13c-1.83-0.12-2.59-1.08-2.84-3.37c-0.4-3.69,0.24-7.29,0.91-10.89c0.55-2.94,1.15-5.88,1.73-8.82
				c-0.22-0.06-0.44-0.12-0.65-0.17c-1.97,3.6-3.98,7.22-4.83,11.25c-1.06,5.01-1.29,10.12-1.44,15.23
				c-0.1,3.31-1.41,4.68-4.73,4.41c-7.76-0.65-13.69,2.59-18.77,7.82c-3.02,3.1-5.41,6.65-7.86,10.16c-2.72,3.9-5.44,7.77-8.94,11.1
				c-2.97,2.83-6.41,5.06-9.67,7.52c-0.67,0.51-1.99,1.09-1.5,1.87c0.49,0.79,1.62-0.09,2.39-0.41c7.44-3.09,13.07-8.31,17.93-14.41
				c2.27-2.85,4.31-5.88,6.69-8.64c3.52-4.08,7.95-6.48,13.68-5.92c2.66,0.26,4.8-0.59,6.54-2.56c1.75-1.99,3.56-3.92,5.37-5.86
				c0.47-0.5,0.84-1.02,1.74-0.31c1.86,1.47,3.31,1.33,5.14-0.19c0.97-0.81,1.74-1.78,2.35-2.84c2.8-4.87,4.56-10.07,5.15-15.62
				c0.48-4.5,0.07-9.06,1.01-13.53C595.37,333.36,595.55,332.92,594.99,332.8z"/>
			<path class="st0" d="M247.6,306.43c2.73-2.01,3.97-5.16,4.39-8.5c0.12-0.93,0.48-1.91-0.33-2.98c-1.04,1.2-1.19,2.63-1.85,3.83
				c-0.64,1.16-1.32,2.39-3,1.71c-1.67-0.67-2.45,0-2.93,1.46c-0.22,0.66-0.58,1.27-0.85,1.91c-0.54,1.26-1.52,1.8-2.87,1.5
				c-1.65-0.37-2.92,0.23-4.09,1.26c-0.8,0.7-1.59,1.42-2.43,2.07c-2.79,2.16-5.98,2.45-9.17,1.29c-3.05-1.1-4.11-3.72-4.28-6.69
				c-0.08-1.39-0.16-2.79-0.1-4.17c0.31-6.67,1.34-13.27,2.15-19.89c0.49-3.97,1.08-7.93,1.26-11.93c0.02-0.36,0.22-0.92-0.4-0.98
				c-0.38-0.04-0.54,0.4-0.67,0.72c-1.33,3.48-3.1,6.86-3.88,10.45c-2.15,9.88-3.45,19.9-3.94,29.99
				c-0.17,3.48,0.22,6.96,1.72,10.21c1.39,3.01,4.26,4.63,7.53,4.22c2.11-0.26,3.87-1.26,5.27-2.76c1.41-1.5,2.73-3.08,4.04-4.67
				c1.47-1.79,3.29-2.65,5.67-2.23c1.01,0.18,2.02,0.04,2.66-0.72C243.24,309.48,245.44,308.03,247.6,306.43z"/>
			<path class="st0" d="M297.32,372.62c0.15-0.5,0.45-1.12-0.16-1.68c-0.17,0.15-0.4,0.26-0.49,0.44c-1.87,3.42-5.11,5.07-8.64,6.4
				c-6.97,2.64-14.28,3.44-21.67,3.69c-5.46,0.18-10.92,0.02-16.26-1.31c-3.1-0.77-5.69-1.99-5.54-5.73
				c0.02-0.43,0.07-1.21-0.68-1.22c-0.67-0.01-0.73,0.71-0.84,1.18c-0.63,2.71-1.18,5.44-1.46,8.21c-0.29,2.92,0.99,5.05,3.66,6.41
				c1.23,0.63,2.54,1.03,3.91,1.25c7.12,1.12,14.24,0.75,21.32-0.24c6.19-0.86,12.17-2.39,17.78-5.24
				C293.44,382.14,295.81,377.71,297.32,372.62z"/>
			<path class="st0" d="M204.98,237.11c11.17-8.41,22.36-16.81,32.27-26.64c4.69-4.65,9.22-9.47,11.7-15.69
				c0.33-0.84,0.87-1.66,0.7-2.62c-0.58-0.13-0.77,0.31-1.04,0.59c-12.28,12.95-26.09,24.27-40.26,35.21
				c-5.95,4.59-12.1,8.96-17.48,14.21c-2.58,2.51-4.33,5.49-5.08,9.19c0.81-0.55,1.65-1.08,2.43-1.66
				C193.81,245.51,199.4,241.31,204.98,237.11z"/>
			<path class="st0" d="M656.15,362.99c-1.51-0.54-1.49,0.62-1.9,1.36c-0.43,0.79-0.76,2.02-1.94,1.61
				c-1.38-0.48-1.86,0.19-2.36,1.1c-0.7,1.25-1.66,1.94-3.21,1.58c-1.37-0.32-2.47,0.23-3.38,1.18c-0.73,0.77-1.44,1.56-2.11,2.37
				c-1.65,2.03-3.8,2.86-6.36,2.22c-2.63-0.66-3.81-2.6-4.27-5.07c-0.61-3.2,0.02-6.36,0.25-9.53c0.19-2.62,0.57-5.23,0.86-7.84
				c-0.14-0.04-0.29-0.08-0.43-0.12c-0.13,0.17-0.32,0.33-0.4,0.52c-1.87,4.74-4.27,9.35-4.09,14.64c0.04,1.16-0.05,2.32-0.15,3.48
				c-0.26,2.89-0.24,5.79-0.69,8.67c-0.44,2.82-2.9,5.24-6.11,4.22c-1.28-0.41-2.66-0.73-4.06-0.29c-4.33,1.37-7.04,4.46-9.2,8.11
				c-0.19,0.31-0.43,0.77-0.08,1.14c0.42,0.45,0.77,0,1.1-0.17c2.55-1.32,5.21-1.61,8.02-0.96c1.97,0.46,3.79,0.02,5.5-0.99
				c2.33-1.38,3.97-3.33,5.19-5.64c0.52-0.98,1.02-1.97,1.55-2.94c0.32-0.6,0.61-0.63,1.22-0.17c3.52,2.68,6.47,2.28,9.2-1.22
				c1.05-1.34,1.93-2.8,3-4.12c0.82-1.01,1.85-2.07,3.25-1.92c1.9,0.2,3.03-0.81,4.24-1.85c0.62-0.54,1.18-1.3,1.92-1.53
				c2.24-0.7,3.79-2.25,5.27-3.82c1.93-2.04,2.83-4.54,2.89-7.69c-1.01,0.95-1.11,1.92-1.6,2.67
				C656.96,362.41,656.67,363.18,656.15,362.99z"/>
			<path class="st0" d="M765.4,354.89c-0.52-0.16-0.84,0.43-1.01,0.82c-0.63,1.46-1.82,1.98-3.35,2.11c-1.4,0.12-2.45,0.92-3.3,1.93
				c-1.09,1.31-2.19,2.62-3.16,4.01c-0.89,1.28-1.94,1.89-3.59,1.77c-3.46-0.24-6.62,0.73-9.57,2.46c-2.69,1.58-5.09,3.47-7.18,5.74
				c-2.73,2.95-5.07,6.19-7.25,9.52c-4.62,7.04-10.13,13.21-17.44,17.79c-1.17,0.73-2.4,1.53-3.14,2.94
				c1.02,0.43,1.72-0.04,2.41-0.32c7.64-3.12,13.4-8.45,18.36-14.7c2.19-2.76,4.18-5.68,6.46-8.36c3.45-4.05,7.78-6.49,13.43-6.09
				c1.97,0.14,3.53-0.57,4.61-2.16c1.38-2.04,2.76-4.07,4.07-6.15c1.32-2.09,3.01-3.62,5.67-3.77c0.8-0.05,1.36-0.43,1.79-1.01
				c1.17-1.57,1.96-3.32,2.49-5.17C765.82,355.79,766.08,355.1,765.4,354.89z"/>
			<path class="st0" d="M213.47,282.72c-0.78-0.34-1.25,0.89-1.57,1.57c-1.3,2.74-3.45,4.52-6.28,5.65
				c-0.77,0.31-1.49,0.74-2.23,1.12c-2.82,1.45-5.12,3.41-6.52,6.25c-1.1,2.25-2.42,4.42-3.27,6.76c-1.43,3.95-4.28,6.59-7.74,8.84
				c-3.38,2.2-6.92,4.17-10.1,6.65c-0.56,0.44-1.56,0.8-1.2,1.71c0.33,0.83,1.29,0.65,2.26,0.67c2.32-0.18,4.78-0.69,7.24-1.19
				c4.48-0.9,7.45-3.51,9.15-7.55c0.88-2.09,1.82-4.16,2.63-6.27c1.46-3.82,3.76-6.89,7.89-8.24c4.43-1.44,6.63-4.73,8.12-8.68
				c0.62-1.63,1.15-3.29,1.67-4.95C213.78,284.27,214.29,283.08,213.47,282.72z"/>
			<path class="st0" d="M208.7,335.88c0.82-1.06,1.56-2.2,2.24-3.35c2.32-3.95,1.37-6.77-2.9-9.74c-1.08-0.75-1.95-0.62-2.65,0.57
				c-1.12,1.9-2.31,3.76-3.6,5.85c-1.24-1.86-2.65-3.18-4.28-4.3c-1.14-0.78-1.95-0.64-2.59,0.58c-0.71,1.34-1.55,2.62-2.21,3.98
				c-3.05,6.29-3.63,4.4,2.18,9.24c1.27,1.06,2.22,0.8,3.17-0.36c1.16-1.42,2.06-2.99,2.83-4.62c0.34-0.71,0.71-0.85,1.3-0.27
				c0.93,0.91,1.87,1.8,2.81,2.69C206.69,337.75,207.27,337.73,208.7,335.88z"/>
			<path class="st0" d="M632.55,350.88c10.71-8.13,21.76-15.85,31.79-24.8c3.4-3.04,6.66-6.21,9.29-9.9
				c0.74-1.04,1.5-2.08,2.14-3.18c0.63-1.1,1.13-2.26,1.36-3.54c0.01,0,0.02,0,0.04,0c0.01-0.02,0.02-0.04,0.04-0.05
				c0.02-0.01,0.04-0.01,0.06-0.02c0.02-0.01,0.01-0.06,0.02-0.09c-0.03,0.04-0.05,0.07-0.08,0.11c-0.02,0.01-0.04,0.02-0.07,0.03
				c0,0.01,0,0.02-0.01,0.03c-0.63-0.02-0.86,0.53-1.21,0.86c-10.09,9.79-20.7,19.02-32.08,27.42c-3.05,2.25-6.01,4.62-8.7,7.29
				c-1.8,1.79-2.94,3.93-3.86,6.59C631.93,351.23,632.27,351.09,632.55,350.88z"/>
			<path class="st0" d="M245.26,249.54c-1.09,1.85-2.28,3.65-3.49,5.57c-1.14-1.76-2.59-3.03-4.19-4.16
				c-1.05-0.75-1.82-0.6-2.49,0.5c-1.49,2.44-2.86,4.94-4.11,7.51c-0.53,1.1-0.33,1.84,0.62,2.55c1.19,0.88,2.34,1.81,3.47,2.76
				c1.18,1,2.12,0.75,3.04-0.34c1.03-1.22,1.94-2.54,2.53-3.98c0.64-1.55,1.27-1.25,2.17-0.29c0.72,0.77,1.49,1.51,2.27,2.23
				c1.45,1.35,2.04,1.32,3.37-0.18c0.98-1.1,1.82-2.29,2.48-3.6c1.93-3.82,0.94-6.98-2.86-9.15
				C246.89,248.29,246.01,248.26,245.26,249.54z"/>
			<path class="st0" d="M542.43,317.84c5.31-4.64,10.48-9.39,13.77-15.68c0.06-0.11,0.12-0.22,0.19-0.33
				c0.45-0.77,0.99-1.53,0.74-2.5c0,0,0.01-0.01,0.01-0.01c0.02-0.02,0.04-0.03,0.05-0.05c0.06-0.01,0.11-0.03,0.17-0.04l0,0h0
				c-0.02-0.01-0.04-0.02-0.05-0.02s-0.03-0.01-0.04-0.01c-0.03,0.02-0.05,0.04-0.07,0.07c-0.03,0.01-0.05,0.01-0.08,0.02l0,0
				c0,0.02,0,0.03,0.01,0.05c-0.35,0.3-0.72,0.59-1.05,0.91c-9.1,8.68-18.34,17.2-28.5,24.74c-4.23,3.14-8.44,6.33-12.24,9.97
				c-2.06,1.98-3.52,4.67-3.61,6.55c0.4-0.26,0.75-0.47,1.08-0.71C522.74,333.2,533.02,326.05,542.43,317.84z"/>
			<path class="st0" d="M626.96,301.29c2.4-2.27,3.97-5.06,5.53-7.86c0.17-0.31,0.53-0.69,0.05-1.07c-0.57-0.03-0.83,0.43-1.16,0.73
				c-13.1,11.93-26.83,23.17-40.74,34.2c-2.21,1.75-3.34,4.14-4.1,6.86c0.35-0.21,0.72-0.39,1.05-0.63
				C601.36,323.51,614.64,312.95,626.96,301.29z"/>
			<path class="st0" d="M536.83,386.19c3.22-4.54,5.09-9.54,5.31-15.06c0.06-1.43-0.3-2.76-1.28-3.88
				c-1.65-1.89-3.73-1.88-5.24,0.12c-1.64,2.16-2.68,4.62-3.74,7.09c-1.21,2.81,1.87,4.67,4.07,4.24c0.55-0.11,1.06-0.59,1.79-0.15
				c-0.81,2.38-2.25,4.31-4.36,5.76c-2.25,1.54-4.54,3.02-6.8,4.54c-0.71,0.48-1.49,0.93-2.1,2.28c4.03-1.15,7.62-2,10.93-3.64
				C535.98,387.21,536.47,386.7,536.83,386.19z"/>
			<path class="st0" d="M443.67,365.59c-0.89-0.56-1.46-0.52-1.93,0.53c-0.91,2.01-1.9,3.99-2.91,5.96
				c-0.58,1.14-0.29,1.97,0.7,2.72c1.33,1,2.56,2.1,3.57,3.41c1.51,1.96,1.49,2.76-0.21,4.55c-2.15,2.27-4.47,4.35-7.08,6.13
				c-0.71,0.48-1.52,0.9-1.94,1.91c0.88,0.2,1.51,0.09,2.16-0.08c7.67-1.98,12.6-7.89,13.02-15.59
				C449.29,370.86,447.23,367.85,443.67,365.59z"/>
			<path class="st0" d="M474.45,363.35c-1.19,2.71-3.55,4.11-6.17,5.26c-2.32,1.02-4.05,2.66-5.14,4.91
				c-0.66,1.36-1.46,2.68-1.96,4.1c-1.12,3.13-3.31,5.29-6.12,7.03c-2.37,1.47-4.67,3.05-6.98,4.61c-0.37,0.25-0.92,0.54-0.74,1.08
				c0.2,0.6,0.84,0.57,1.38,0.54c1.86-0.09,3.67-0.53,5.49-0.88c3.15-0.61,5.22-2.44,6.45-5.25c0.65-1.49,1.36-2.97,1.91-4.5
				c1.04-2.9,2.87-5.01,5.89-6.16c5.32-2.01,5.83-6.83,7.24-11.37C474.76,362.71,474.58,363.07,474.45,363.35z"/>
			<path class="st0" d="M765.34,329.67c-0.74-0.15-1.12,0.22-1.47,0.73c-0.93,1.35-1.85,2.69-2.89,4.19
				c-0.97-1.1-1.92-1.98-2.97-2.77c-1.16-0.86-2.06-0.98-2.84,0.48c-0.82,1.54-1.73,3.05-2.71,4.5c-0.9,1.33-0.63,2.16,0.68,3.14
				c3.8,2.83,4.28,2.85,6.61-1.22c0.81-1.4,1.31-1.34,2.41-0.33c3.08,2.83,3.66,2.72,5.95-0.84c0.28-0.44,0.55-0.9,0.76-1.38
				C770.03,333.6,768.17,330.23,765.34,329.67z"/>
			<path class="st0" d="M204.41,371.79c-0.7-0.29-1.58-0.84-2.18-0.22c-0.93,0.96-1.94,2.31-1.65,3.5c0.27,1.1-0.15,1.44-0.72,1.96
				c-1.6,1.44-2.96,3.05-3.65,5.09c-0.71,2.09-0.38,2.97,1.63,3.93c1.24,0.6,1.32,1.28,0.71,2.34c-1.45,2.54-3.75,3.65-6.63,3.84
				c-2.92,0.19-4.78-1.5-4.88-4.35c-0.07-1.86,0.67-3.5,1.33-5.18c0.58-1.47,1.5-2.85,1.43-4.52c-1.85,3.48-3.76,6.94-4.24,10.92
				c-0.39,3.28,0.8,6.17,2.92,7.16c2.23,1.05,5.67,0.16,8-2.17c2.29-2.28,3.43-5.12,4.1-8.17c0.4-1.83,0.41-3.47-1.81-4.3
				c-0.97-0.36-1.01-0.96-0.35-1.75c1.16-1.39,2.69-2.3,4.27-3.13c1.07-0.56,2.05-1.21,2.64-2.28
				C206.02,373.25,205.72,372.34,204.41,371.79z"/>
			<path class="st0" d="M664.7,348.89c1.01-1.71,1.01-1.71,2.51-0.29c2.63,2.48,2.95,2.45,5-0.57c0.23-0.34,0.44-0.69,0.63-1.05
				c1.53-2.86,0.71-5.31-2.22-6.87c-0.91-0.48-1.54-0.41-2.09,0.48c-0.82,1.34-1.69,2.65-2.64,4.13c-0.87-1.24-1.79-2.06-2.79-2.81
				c-1.06-0.81-1.86-0.86-2.54,0.44c-0.79,1.5-1.61,2.98-2.53,4.4c-0.86,1.32-0.67,2.19,0.62,3.19
				C662.15,352.65,662.5,352.64,664.7,348.89z"/>
			<path class="st0" d="M517.09,393.07c-0.94-0.56-1.64-0.54-2.25,0.44c-0.79,1.28-1.64,2.54-2.61,4.04
				c-1.01-1.05-1.86-2.03-2.81-2.91c-0.88-0.82-1.69-0.72-2.3,0.38c-0.83,1.48-1.63,2.97-2.55,4.4c-0.92,1.44-0.68,2.38,0.76,3.44
				c3.27,2.41,3.68,2.46,5.63-1.08c0.83-1.51,1.37-1.56,2.59-0.4c2.62,2.48,2.84,2.41,4.93-0.48c0.14-0.19,0.27-0.38,0.4-0.58
				C520.75,397.41,520.11,394.88,517.09,393.07z"/>
			<path class="st0" d="M357.93,365.26c3.23,2.4,3.7,2.43,5.62-1.1c0.82-1.5,1.33-1.62,2.56-0.42c2.62,2.53,2.92,2.45,5.02-0.55
				c0.1-0.14,0.2-0.29,0.29-0.44c1.9-2.91,1.31-5.35-1.69-7.25c-1-0.63-1.74-0.59-2.38,0.45c-0.76,1.24-1.56,2.46-2.4,3.79
				c-1-0.94-1.84-1.76-2.7-2.55c-1.04-0.95-1.94-1-2.68,0.38c-0.77,1.44-1.53,2.89-2.44,4.24
				C356.15,363.3,356.54,364.23,357.93,365.26z"/>
			<path class="st0" d="M680.75,368c1.98,1.65,2.47,1.57,3.93-0.46c0.64-0.89,1.12-2.42,1.88-2.56c1.06-0.18,1.81,1.28,2.72,2
				c0.56,0.45,1.19,1.05,1.88,0.43c1.63-1.48,2.96-3.18,3.32-5.04c0.08-1.37-0.17-2.05-0.97-3.07c-2.22-2.81-3.27-2.77-5.13,0.2
				c-1.47,2.35-1.47,2.35-3.41,0.51c-0.3-0.28-0.61-0.56-0.92-0.83c-0.95-0.8-1.78-0.86-2.44,0.35c-0.62,1.12-1.33,2.2-1.93,3.33
				C677.68,366.63,677.99,365.7,680.75,368z"/>
			<path class="st0" d="M559.02,338.59c3.26,2.46,3.59,2.47,5.69-1.01c1.08-1.79,1.08-1.79,2.65-0.35c2.57,2.36,2.74,2.34,4.78-0.49
				c0.1-0.14,0.2-0.29,0.3-0.43c2.08-3.05,1.67-5.15-1.35-7.31c-1.07-0.76-1.9-0.82-2.63,0.41c-0.74,1.25-1.55,2.46-2.41,3.8
				c-0.96-0.96-1.81-1.84-2.7-2.67c-0.99-0.93-1.87-0.89-2.58,0.36c-0.8,1.42-1.58,2.85-2.46,4.23
				C557.41,336.54,557.59,337.51,559.02,338.59z"/>
			<path class="st0" d="M261.72,368.67c2.04,1.68,2.48,1.56,4.04-0.53c0.65-0.87,0.84-2.45,1.89-2.52c0.99-0.07,1.7,1.31,2.57,2.01
				c0.55,0.44,1.18,1.11,1.87,0.51c1.75-1.54,3.14-3.33,3.41-5.4c-0.02-1.85-2.04-4.38-3.53-4.83c-0.74-0.22-1.15,0.12-1.49,0.64
				c-0.71,1.07-1.42,2.15-2.07,3.25c-0.42,0.72-0.75,0.71-1.3,0.09c-0.66-0.74-1.4-1.43-2.15-2.09c-0.89-0.77-1.69-0.74-2.31,0.37
				c-0.62,1.12-1.34,2.19-1.94,3.32C258.74,367.15,258.95,366.4,261.72,368.67z"/>
			<path class="st0" d="M466.68,394.35c-0.82-0.35-1.24-0.06-1.61,0.55c-0.83,1.32-1.65,2.65-2.59,4.15
				c-0.78-1.02-1.59-1.86-2.48-2.61c-1.13-0.96-2.03-1.13-2.74,0.43c-0.41,0.9-0.98,1.72-1.41,2.61c-1.94,4.02-2.47,3.07,1.6,6.38
				c0.97,0.79,1.73,0.69,2.38-0.26c0.85-1.23,1.61-2.51,2.67-4.17c0.92,1.04,1.71,1.98,2.55,2.88c0.72,0.77,1.44,0.69,2.11-0.11
				c0.91-1.09,1.71-2.24,2.27-3.53C470.47,398.26,469.2,395.43,466.68,394.35z"/>
			<path class="st0" d="M430.41,351.89c-2.54,4.71-3.84,9.67-3.64,15.03c0.18,4.86,0.24,9.73-1.03,14.51
				c-0.1,0.39-0.42,0.99,0.19,1.2c0.54,0.19,0.81-0.38,1.08-0.75c1.45-1.96,2.25-4.2,2.93-6.48c1.28-4.23,1.02-8.6,1.24-12.93
				c0.21-3.92,0.12-7.85,0.71-11.9C430.75,350.76,430.66,351.42,430.41,351.89z"/>
			<path class="st0" d="M600.95,356.44c-0.42-0.08-0.62,0.29-0.77,0.6c-1.84,3.65-3.59,7.33-3.78,11.48
				c-0.29,6.35,0.53,12.76-1.26,18.77c-0.04,0.57-0.27,0.99,0.23,1.13c0.5,0.13,0.75-0.31,0.98-0.62c2.05-2.8,3.16-5.97,3.66-9.32
				c1.04-7.07,0.4-14.24,1.26-21.32C601.3,356.84,601.3,356.5,600.95,356.44z"/>
			<path class="st0" d="M242.78,250.48c1.87-2.45,3.33-5.08,3.75-7.72c-0.02-2.71-2.26-5.68-4.5-6.5c-0.99-0.36-1.58-0.08-2.07,0.76
				c-1.51,2.58-2.75,5.27-3.89,8.02c-0.28,0.66-0.27,1.25,0.31,1.74c1.55,1.28,3.1,2.56,4.67,3.82
				C241.65,251.07,242.29,251.14,242.78,250.48z"/>
			<path class="st0" d="M311.15,367.7c-0.48-0.11-0.75,0.31-0.92,0.69c-0.8,1.74-1.69,3.46-2.35,5.25
				c-2.23,5.96-6.03,10.57-11.88,13.57c-1.1,0.56-2.08,1.36-3.06,2.11c-0.35,0.26-0.78,0.67-0.53,1.18
				c0.26,0.54,0.81,0.36,1.28,0.29c2.2-0.3,4.32-0.92,6.45-1.47c3-0.77,5-2.55,6.31-5.22c1.51-3.09,2.74-6.29,3.78-9.55
				c0.6-1.88,1.04-3.8,1.45-5.34C311.71,368.36,311.74,367.83,311.15,367.7z"/>
			<path class="st0" d="M202.59,337.18c-0.78-0.33-1.25-0.12-1.68,0.47c-1.7,2.33-3.08,4.83-4.37,7.38
				c-0.39,0.78-0.2,1.43,0.44,2.03c1.3,1.2,2.57,2.43,3.84,3.66c0.6,0.58,1.22,0.78,1.84,0.1c2.05-2.25,3.64-4.73,3.92-7.3
				C206.59,340.97,204.49,338,202.59,337.18z"/>
			<path class="st0" d="M222.36,378.36c-2.35,0.16-3.22,1.75-4.42,3.13c-2.12-1.76-2.54-1.75-4.47,0.06
				c-0.13,0.12-0.26,0.24-0.38,0.37c-0.9,0.93-2.04,0.95-3.17,0.63c-1.15-0.32-1.49-1.34-1.53-2.34c-0.05-1.33,0.07-2.66,0.14-3.99
				c0.04-0.64,0.11-1.27,0.21-1.9c0.28-1.88,0.72-3.74,0.68-5.66c0.01,0,0.01-0.01,0.02-0.01l-0.02-0.02c0,0.01,0,0.02,0,0.03
				c-0.45,0.25-0.51,0.74-0.71,1.13c-1.74,3.49-1.53,7.34-2.1,11.05c-0.17,1.13-0.13,2.33,0.04,3.46c0.17,1.1,0.65,2.16,1.95,2.48
				c1.37,0.35,2.47-0.12,3.33-1.17c0.45-0.55,0.85-1.13,1.3-1.66c0.54-0.63,1.11-1.32,2.11-0.86c0.92,0.42,0.98,1.24,0.88,2.09
				c-0.09,0.79-0.41,1.57-0.07,2.81c0.73-1.75,1.23-3.1,1.86-4.4c0.53-1.1,1.14-2.54,2.39-2.64c1.53-0.11,2.35-1.08,3.4-1.75
				c1.07-0.68,1.74-1.79,1.43-3.7C224.59,377.24,223.25,378.3,222.36,378.36z"/>
			<path class="st0" d="M756.72,328.51c1.14,0.84,2.26,1.7,3.4,2.55c0.57,0.42,1.18,0.68,1.73,0.03c1.5-1.76,2.64-3.7,3-5.76
				c0.04-1.88-1.56-3.96-3.4-4.78c-0.94-0.42-1.61-0.28-2.08,0.6c-1.01,1.9-1.99,3.81-3.01,5.7
				C756,327.53,756.1,328.05,756.72,328.51z"/>
			<path class="st0" d="M664.34,331.55c-1.03,1.83-1.96,3.7-2.78,5.63c-0.28,0.66-0.12,1.11,0.4,1.52c1.06,0.85,2.13,1.69,3.2,2.53
				c0.52,0.4,1.07,0.59,1.56-0.02c1.4-1.77,2.46-3.69,2.85-5.9c-0.25-1.95-1.34-3.32-3.01-4.32
				C665.62,330.44,664.9,330.57,664.34,331.55z"/>
			<path class="st0" d="M528.24,335.29c-0.91,1.56-1.79,3.13-2.45,4.8c-0.29,0.75-0.77,1.58-0.01,2.26
				c1.27,1.12,2.57,2.23,4.28,2.72c0.15,0.04,0.45-0.17,0.59-0.33c1.44-1.73,2.51-3.64,3-5.89c-0.36-1.72-1.65-2.85-2.95-3.96
				C529.76,334.08,528.92,334.11,528.24,335.29z"/>
			<path class="st0" d="M634.15,403.48c-0.73-0.18-1.12,0.18-1.45,0.72c-1.1,1.79-2.11,3.62-2.82,5.6
				c-0.24,0.66-0.32,1.29,0.29,1.74c1.18,0.88,2.42,1.68,3.64,2.52c0.43,0.29,0.81,0.17,1.11-0.18c1.45-1.72,2.52-3.63,2.99-5.54
				C637.92,406.78,635.44,403.79,634.15,403.48z"/>
			<path class="st0" d="M409.52,342.56c1.34,0.91,2.45,2.21,4.19,2.48c0.13,0.02,0.34-0.13,0.44-0.26c1.45-1.72,2.51-3.63,2.98-5.63
				c0.05-1.52-2.6-4.61-3.91-4.8c-0.66-0.1-0.99,0.28-1.28,0.74c-1.09,1.73-2.04,3.52-2.77,5.41
				C408.9,341.22,408.74,342.03,409.52,342.56z"/>
			<path class="st0" d="M143.65,391.83c-4.77-5.56-4.78-15.01,0-20.66c0.27-0.33,0.97-0.64,0.53-1.12
				c-0.52-0.56-0.95,0.12-1.31,0.41c-3.6,2.87-4.93,6.71-4.96,11.29c0.07,4.09,1.35,7.89,4.91,10.72c0.37,0.29,0.84,0.95,1.36,0.44
				C144.66,392.44,143.92,392.14,143.65,391.83z"/>
			<path class="st0" d="M228.52,370.43c-0.33-0.25-0.7-0.89-1.18-0.46c-0.65,0.58,0.18,0.88,0.46,1.22
				c4.8,5.61,4.79,14.97-0.03,20.65c-0.26,0.31-0.98,0.59-0.48,1.09c0.46,0.46,0.86-0.13,1.2-0.39c3.68-2.83,4.93-6.69,5.06-10.98
				C233.43,377.14,232.18,373.27,228.52,370.43z"/>
			<path class="st0" d="M155.99,294.08c0.57,0.38,1.23,0.42,1.9,0.39c1.72-0.02,3.18-0.68,4-1.66c0.03-0.04,0.06-0.08,0.09-0.11
				c0.13-0.17,0.25-0.35,0.34-0.54c0.21-0.45,0.31-0.94,0.25-1.45c-0.11-1.06-1.23-2.02-0.53-3.14c0.69-1.1,2.06-0.73,3.11-1.08
				c0.72-0.23,1.09-0.71,1.04-1.43c-0.06-0.82-0.66-1-1.38-1.05c-2.72-0.17-4.82,2.15-4.25,4.71c0.5,2.23,0.09,2.82-2.23,3.13
				c-0.59,0.08-1.2,0.06-1.79,0.09c-0.52,0.03-1.2-0.11-1.37,0.54C154.99,293.17,155.41,293.7,155.99,294.08z"/>
			<path class="st0" d="M182.7,366.67c-0.55,1.02-1.16,2.01-1.61,3.06c-0.26,0.61,1.75,2.38,2.35,2.07
				c1.21-0.61,1.74-1.78,1.79-2.99c0.06-1.23-1.06-1.83-1.91-2.4C182.94,366.28,182.81,366.46,182.7,366.67z"/>
			<path class="st0" d="M171.76,371.95c-0.93-0.54-1.79-0.12-2.41,0.55c-1.04,1.12-1.98,2.33-2.97,3.49
				c-0.37,0.43-0.6,1.09-1.36,0.97c-2.2-0.36-2.36,1.08-2.38,2.55c-0.02,1.98-0.15,3.93-0.72,5.85c-1.31,4.38-5.92,7.26-10.54,6.56
				c-2.58-0.39-3.84-1.94-3.6-4.51c0.15-1.58,0.74-3.03,1.4-4.47c0.43-0.93,1.11-1.79,1-3.41c-1.92,3.07-3.34,5.76-3.88,8.84
				c-0.25,1.45-0.34,2.87,0.02,4.31c0.73,2.89,3.12,4.43,6.19,3.97c3.62-0.54,5.97-2.76,7.93-5.51c2.05-2.88,2.93-6.18,3.67-9.54
				c0.14-0.63,0.26-1.09,1.19-1.18c3.6-0.36,6.29-2.84,6.98-6.26C172.45,373.38,172.65,372.47,171.76,371.95z M170.15,375.55
				c-0.9,0.63-1.82,1.31-3.24,1.14c0.63-1.03,1.23-1.92,2.18-2.55c0.65-0.44,1.43-0.28,1.81,0.18
				C171.47,374.99,170.56,375.27,170.15,375.55z"/>
			<path class="st0" d="M185.07,377.59c-3.31-0.62-3.66-0.48-5.46,2.33c-0.35,0.54-0.74,1.06-1.02,1.64
				c-0.71,1.47-1.61,1.05-2.52,0.25c-0.65-0.57-0.94-1.34-0.91-2.19c0.05-1.21,0.09-2.43,0.23-3.63c0.28-2.36,0.63-4.71,0.95-7.07
				c-0.48,0.22-0.63,0.51-0.77,0.81c-1.86,3.95-1.73,8.23-2.21,12.4c-0.2,1.75,0.15,3.44,1.97,4.31c1.88,0.9,3.78,0.61,5.4-0.63
				c2.73-2.1,3.97-5.26,6.3-8.06C186.01,377.67,185.53,377.68,185.07,377.59z M183.49,380.37c-1.16,1.2-2.41,2.22-4.4,2.2
				c0.47-1.24,1.15-2.16,1.91-3.03c0.5-0.57,1.17-0.73,1.96-0.54C183.89,379.21,184.27,379.57,183.49,380.37z"/>
			<path class="st0" d="M327.19,366.99c-0.43-0.03-0.93,0.14-1.45-0.31c1.33-1.2,2.59-2.33,3.85-3.48
				c7.86-7.17,15.87-14.19,23.25-21.84c1.95-2.02,2.87-4.51,3.78-7.03c0.14-0.38,0.34-0.88-0.04-1.13c-0.46-0.3-0.71,0.22-0.98,0.51
				c-10.62,11.32-22.27,21.64-33.57,32.3c-0.47,0.45-0.87,1.07-1.75,1.16c0.34-5.43,1.58-10.7,1.67-16.05
				c-0.15-0.02-0.29-0.04-0.44-0.06c-0.12,0.2-0.26,0.38-0.36,0.59c-4.31,9.55-4.97,19.74-5.51,29.94
				c-0.12,2.26,0.16,4.53,1.34,6.58c1.28,2.23,3.53,3.16,6.1,2.54c2.31-0.56,3.94-2.04,5.15-3.86c2.81-4.22,4.48-8.85,4.65-13.89
				C333.01,369.22,331.1,367.3,327.19,366.99z M327.35,381.37c-0.94,0.44-1.93,0.61-2.76,0.57c-2.05,0.1-3.7-0.31-4.66-1.99
				c-0.75-1.31-0.56-2.56,0.69-3.58c1.92-1.56,4.67-1.85,6.9-0.71c1.25,0.64,2.08,1.53,2.02,3
				C329.48,380.09,328.53,380.82,327.35,381.37z"/>
		</g>
	</g>
</g>
</svg>
