<svg width="57" height="57" viewBox="0 0 57 57" fill="none" xmlns="http://www.w3.org/2000/svg">
<path d="M50.9231 2H6.07692C4.99566 2 3.95867 2.42953 3.1941 3.1941C2.42953 3.95867 2 4.99566 2 6.07692V30.5385C2 31.6197 2.42953 32.6567 3.1941 33.4213C3.95867 34.1859 4.99566 34.6154 6.07692 34.6154H50.9231C52.0043 34.6154 53.0413 34.1859 53.8059 33.4213C54.5705 32.6567 55 31.6197 55 30.5385V6.07692C55 4.99566 54.5705 3.95867 53.8059 3.1941C53.0413 2.42953 52.0043 2 50.9231 2Z" stroke="#082241" stroke-width="2.5" stroke-linecap="round" stroke-linejoin="round"/>
<path d="M28.5011 25.4423C29.438 25.4423 30.3658 25.2578 31.2314 24.8992C32.097 24.5407 32.8835 24.0152 33.546 23.3526C34.2085 22.6901 34.734 21.9036 35.0926 21.038C35.4511 20.1724 35.6357 19.2446 35.6357 18.3077C35.6357 17.3708 35.4511 16.443 35.0926 15.5774C34.734 14.7118 34.2085 13.9253 33.546 13.2628C32.8835 12.6003 32.097 12.0747 31.2314 11.7162C30.3658 11.3576 29.438 11.1731 28.5011 11.1731C26.6088 11.1731 24.7941 11.9248 23.4561 13.2628C22.1181 14.6008 21.3665 16.4155 21.3665 18.3077C21.3665 20.1999 22.1181 22.0146 23.4561 23.3526C24.7941 24.6906 26.6088 25.4423 28.5011 25.4423ZM11.2761 19.3269C11.0057 19.3269 10.7465 19.2196 10.5554 19.0284C10.3642 18.8373 10.2568 18.578 10.2568 18.3077C10.2568 18.0374 10.3642 17.7781 10.5554 17.587C10.7465 17.3959 11.0057 17.2885 11.2761 17.2885M11.2761 19.3269C11.5464 19.3269 11.8056 19.2196 11.9968 19.0284C12.1879 18.8373 12.2953 18.578 12.2953 18.3077C12.2953 18.0374 12.1879 17.7781 11.9968 17.587C11.8056 17.3959 11.5464 17.2885 11.2761 17.2885M45.7261 19.3269C45.4558 19.3269 45.1965 19.2196 45.0054 19.0284C44.8142 18.8373 44.7068 18.578 44.7068 18.3077C44.7068 18.0374 44.8142 17.7781 45.0054 17.587C45.1965 17.3959 45.4558 17.2885 45.7261 17.2885M45.7261 19.3269C45.9964 19.3269 46.2556 19.2196 46.4468 19.0284C46.6379 18.8373 46.7453 18.578 46.7453 18.3077C46.7453 18.0374 46.6379 17.7781 46.4468 17.587C46.2556 17.3959 45.9964 17.2885 45.7261 17.2885" stroke="#082241" stroke-width="2.5" stroke-linecap="round" stroke-linejoin="round"/>
<path d="M28.4999 46.8462V55.0001M38.6922 42.7693V50.9231M18.3076 42.7693V50.9231" stroke="#20BF55" stroke-width="2.5" stroke-linecap="round" stroke-linejoin="round"/>
</svg>
