<svg width="75" height="75" viewBox="0 0 75 75" fill="none" xmlns="http://www.w3.org/2000/svg">
<path d="M37.5 59.4082L37.533 59.3718" stroke="#082241" stroke-width="2.5" stroke-linecap="round" stroke-linejoin="round"/>
<path d="M56.25 56.25V66.875C56.25 67.1212 56.2015 67.365 56.1073 67.5925C56.013 67.82 55.8749 68.0267 55.7008 68.2008C55.5267 68.3749 55.32 68.513 55.0925 68.6073C54.865 68.7015 54.6212 68.75 54.375 68.75H20.625C20.3788 68.75 20.135 68.7015 19.9075 68.6073C19.68 68.513 19.4733 68.3749 19.2992 68.2008C19.1251 68.0267 18.987 67.82 18.8927 67.5925C18.7985 67.365 18.75 67.1212 18.75 66.875V56.25M56.25 18.75V8.125C56.25 7.62772 56.0525 7.15081 55.7008 6.79917C55.3492 6.44754 54.8723 6.25 54.375 6.25H20.625C20.1277 6.25 19.6508 6.44754 19.2992 6.79917C18.9475 7.15081 18.75 7.62772 18.75 8.125V18.75" stroke="#082241" stroke-width="2.5" stroke-linecap="round"/>
<path d="M48.4375 26.5625L59.375 37.5L48.4375 48.4375M26.5625 26.5625L15.625 37.5L26.5625 48.4375" stroke="#20BF55" stroke-opacity="0.85" stroke-width="2.5" stroke-linecap="round" stroke-linejoin="round"/>
</svg>
