<svg width="106" height="106" viewBox="0 0 106 106" fill="none" xmlns="http://www.w3.org/2000/svg">
<path d="M46.4677 11.5893C47.2955 10.6798 48.3042 9.95326 49.429 9.4561C50.5539 8.95895 51.7701 8.70215 52.9999 8.70215C54.2297 8.70215 55.446 8.95895 56.5708 9.4561C57.6957 9.95326 58.7043 10.6798 59.5322 11.5893L64.0372 16.5359C64.9119 17.4962 65.9876 18.2517 67.1877 18.7487C68.3878 19.2457 69.6827 19.4719 70.9802 19.4112L77.6626 19.102C78.8906 19.0442 80.1171 19.2433 81.2637 19.6866C82.4103 20.1299 83.4518 20.8076 84.3214 21.6765C85.1911 22.5453 85.8699 23.5861 86.3143 24.7323C86.7587 25.8785 86.959 27.1048 86.9023 28.3328L86.5887 35.0197C86.528 36.3172 86.7542 37.6121 87.2512 38.8122C87.7481 40.0123 88.5037 41.088 89.4639 41.9627L94.4106 46.4677C95.32 47.2955 96.0466 48.3042 96.5438 49.429C97.0409 50.5539 97.2977 51.7701 97.2977 52.9999C97.2977 54.2297 97.0409 55.446 96.5438 56.5708C96.0466 57.6957 95.32 58.7043 94.4106 59.5322L89.4639 64.0372C88.5037 64.9119 87.7481 65.9876 87.2512 67.1877C86.7542 68.3878 86.528 69.6827 86.5887 70.9802L86.8978 77.6626C86.9557 78.8906 86.7566 80.1171 86.3133 81.2637C85.87 82.4103 85.1922 83.4518 84.3234 84.3214C83.4545 85.1911 82.4137 85.8699 81.2675 86.3143C80.1214 86.7587 78.895 86.959 77.667 86.9023L70.9802 86.5887C69.6827 86.528 68.3878 86.7542 67.1877 87.2512C65.9876 87.7481 64.9119 88.5037 64.0372 89.4639L59.5322 94.4106C58.7043 95.32 57.6957 96.0466 56.5708 96.5438C55.446 97.0409 54.2297 97.2977 52.9999 97.2977C51.7701 97.2977 50.5539 97.0409 49.429 96.5438C48.3042 96.0466 47.2955 95.32 46.4677 94.4106L41.9627 89.4639C41.088 88.5037 40.0123 87.7481 38.8122 87.2512C37.6121 86.7542 36.3172 86.528 35.0197 86.5887L28.3373 86.8978C27.1093 86.9557 25.8828 86.7566 24.7362 86.3133C23.5896 85.87 22.5481 85.1922 21.6784 84.3234C20.8087 83.4545 20.13 82.4137 19.6856 81.2675C19.2412 80.1214 19.0409 78.895 19.0976 77.667L19.4112 70.9802C19.4719 69.6827 19.2457 68.3878 18.7487 67.1877C18.2517 65.9876 17.4962 64.9119 16.5359 64.0372L11.5893 59.5322C10.6798 58.7043 9.95326 57.6957 9.4561 56.5708C8.95895 55.446 8.70215 54.2297 8.70215 52.9999C8.70215 51.7701 8.95895 50.5539 9.4561 49.429C9.95326 48.3042 10.6798 47.2955 11.5893 46.4677L16.5359 41.9627C17.4962 41.088 18.2517 40.0123 18.7487 38.8122C19.2457 37.6121 19.4719 36.3172 19.4112 35.0197L19.102 28.3373C19.0442 27.1093 19.2433 25.8828 19.6866 24.7362C20.1299 23.5896 20.8076 22.5481 21.6765 21.6784C22.5453 20.8087 23.5861 20.13 24.7323 19.6856C25.8785 19.2412 27.1048 19.0409 28.3328 19.0976L35.0197 19.4112C36.3172 19.4719 37.6121 19.2457 38.8122 18.7487C40.0123 18.2517 41.088 17.4962 41.9627 16.5359L46.4677 11.5893Z" stroke="#082241" stroke-width="3"/>
<path d="M39.75 52.9998L48.5833 61.8332L66.25 44.1665" stroke="#20BF55" stroke-width="3" stroke-linecap="round" stroke-linejoin="round"/>
</svg>
