<?xml version="1.0" encoding="UTF-8"?><svg id="a" xmlns="http://www.w3.org/2000/svg" viewBox="0 0 30.87 41.08"><defs><style>.b{fill:#082241;fill-rule:evenodd;stroke:#082241;stroke-width:.3px;}</style></defs><path class="b" d="M30.71,12.64c-.19-.89-.62-1.73-1.3-2.41L20.67,1.51c-.72-.72-1.62-1.18-2.55-1.32l-.02,.02-.08-.06H4.85C2.25,.15,.15,2.25,.15,4.83v31.65c.16,2.43,2.2,4.45,4.7,4.45H26.05c2.59,0,4.68-2.1,4.68-4.68V12.76l-.02-.12ZM19.41,4.62h0l6.76,6.78h-5.13c-.91,0-1.63-.74-1.63-1.65V4.62Zm3.81,26.91H7.67c-.49,0-.89,.39-.89,.88v2.35c0,.47,.39,.87,.89,.87h15.56c.48,0,.89-.39,.89-.87v-2.35c0-.49-.41-.88-.89-.88h0Zm0-12.86H7.67c-.49,0-.89,.41-.89,.89v2.35c0,.49,.39,.89,.89,.89h15.56c.48,0,.89-.39,.89-.89v-2.35c0-.48-.41-.89-.89-.89h0Zm0,6.43H7.67c-.49,0-.89,.39-.89,.89v2.35c0,.48,.39,.89,.89,.89h15.56c.48,0,.89-.41,.89-.89v-2.35c0-.49-.41-.89-.89-.89h0Z"/></svg>